<?xml version="1.0" standalone="no"?>
<!DOCTYPE svg PUBLIC "-//W3C//DTD SVG 20010904//EN"
 "http://www.w3.org/TR/2001/REC-SVG-20010904/DTD/svg10.dtd">
<svg version="1.0" xmlns="http://www.w3.org/2000/svg"
 width="512.000000pt" height="512.000000pt" viewBox="0 0 512.000000 512.000000"
 preserveAspectRatio="xMidYMid meet">

<g transform="translate(0.000000,512.000000) scale(0.100000,-0.100000)"
fill="#000000" stroke="none">
<path d="M2440 5104 c-91 -24 -161 -65 -230 -134 -192 -193 -199 -487 -17
-687 269 -294 751 -168 852 222 42 165 -8 338 -135 465 -128 127 -306 178
-470 134z"/>
<path d="M2410 3771 c-14 -4 -193 -92 -398 -195 -522 -261 -504 -238 -510
-639 l-4 -248 -86 -40 c-611 -282 -928 -973 -747 -1629 140 -504 546 -881
1068 -992 132 -28 376 -30 514 -5 286 52 530 182 738 391 253 255 386 553 402
904 l6 132 92 0 c88 0 93 -1 98 -22 3 -13 65 -284 137 -603 72 -319 142 -603
154 -630 33 -74 79 -120 154 -157 59 -29 76 -33 147 -33 67 0 89 5 135 27 62
31 109 72 145 126 33 50 59 155 51 206 -18 114 -350 1527 -369 1566 -45 96
-143 164 -259 181 -35 5 -205 9 -378 9 l-315 0 -39 63 c-22 34 -100 122 -173
195 l-132 133 -3 507 -3 507 -33 67 c-35 71 -93 128 -167 162 -44 21 -182 31
-225 17z m-84 -1374 c146 -43 305 -141 422 -259 456 -455 402 -1207 -113
-1591 -186 -138 -393 -208 -620 -209 -129 0 -183 6 -284 34 -463 126 -781 541
-781 1021 0 366 180 691 493 890 l57 37 0 -208 c0 -114 4 -233 10 -266 19
-116 86 -206 188 -254 78 -37 204 -39 273 -4 74 36 125 87 161 160 l33 67 3
311 3 311 52 -12 c29 -7 75 -19 103 -28z"/>
</g>
</svg>
