<?xml version="1.0" standalone="no"?>
<!DOCTYPE svg PUBLIC "-//W3C//DTD SVG 20010904//EN"
 "http://www.w3.org/TR/2001/REC-SVG-20010904/DTD/svg10.dtd">
<svg version="1.0" xmlns="http://www.w3.org/2000/svg"
 width="512.000000pt" height="512.000000pt" viewBox="0 0 512.000000 512.000000"
 preserveAspectRatio="xMidYMid meet">

<g transform="translate(0.000000,512.000000) scale(0.100000,-0.100000)"
fill="#000000" stroke="none">
<path d="M2335 5104 c-811 -109 -1431 -743 -1525 -1559 -44 -390 56 -803 277
-1145 424 -653 1233 -948 1983 -723 134 40 343 138 456 213 812 544 1035 1615
506 2430 -285 440 -759 731 -1287 790 -120 13 -287 11 -410 -6z m293 -608 c49
-25 69 -58 196 -316 72 -147 135 -262 148 -272 16 -11 110 -29 312 -57 322
-46 344 -53 377 -125 22 -49 24 -85 5 -129 -7 -18 -107 -126 -230 -247 -170
-168 -216 -219 -216 -239 0 -14 21 -145 46 -291 28 -160 44 -283 41 -311 -7
-84 -70 -139 -156 -139 -34 0 -91 26 -309 140 -148 77 -274 140 -282 140 -7 0
-134 -63 -281 -140 -220 -115 -275 -140 -309 -140 -87 0 -150 55 -157 139 -3
28 13 151 41 311 25 146 46 277 46 291 0 20 -46 71 -216 240 -120 118 -223
228 -230 246 -19 44 -17 80 5 129 32 71 54 78 376 124 202 29 297 47 313 58
13 10 77 128 151 277 148 299 167 324 259 325 24 0 55 -6 70 -14z"/>
<path d="M2528 3913 c-9 -10 -42 -70 -73 -133 -87 -176 -87 -176 -300 -206
-122 -17 -155 -31 -155 -65 0 -10 47 -63 104 -119 60 -59 111 -117 122 -141
17 -40 17 -44 -4 -177 -28 -175 -28 -190 1 -203 21 -9 44 -1 167 61 122 61
150 71 181 67 21 -3 97 -35 170 -72 114 -58 135 -65 155 -56 30 13 31 37 3
197 -31 175 -31 176 107 312 63 62 114 121 114 131 0 34 -33 48 -155 66 -215
30 -213 29 -300 205 -62 126 -79 150 -105 150 -9 0 -24 -8 -32 -17z"/>
<path d="M1027 1886 c-7 -8 -116 -296 -241 -641 -198 -544 -228 -632 -223
-667 10 -75 79 -138 149 -138 22 0 182 43 356 96 175 52 324 97 333 100 13 3
64 -68 210 -291 106 -163 206 -306 222 -317 36 -25 95 -34 139 -19 73 24 78
34 299 641 115 314 209 579 209 589 0 32 -25 42 -127 52 -445 46 -861 232
-1197 538 -79 72 -103 82 -129 57z"/>
<path d="M3968 1832 c-328 -303 -756 -496 -1201 -541 -102 -10 -127 -20 -127
-51 0 -28 408 -1142 428 -1169 31 -42 69 -64 119 -68 90 -7 103 7 317 334 105
160 194 294 197 298 4 3 155 -39 337 -95 181 -55 348 -100 370 -100 70 0 139
63 149 138 5 35 -25 123 -223 667 -125 345 -234 633 -241 641 -26 26 -51 15
-125 -54z"/>
</g>
</svg>
