<?xml version="1.0" standalone="no"?>
<!DOCTYPE svg PUBLIC "-//W3C//DTD SVG 20010904//EN"
 "http://www.w3.org/TR/2001/REC-SVG-20010904/DTD/svg10.dtd">
<svg version="1.0" xmlns="http://www.w3.org/2000/svg"
 width="512.000000pt" height="512.000000pt" viewBox="0 0 512.000000 512.000000"
 preserveAspectRatio="xMidYMid meet">

<g transform="translate(0.000000,512.000000) scale(0.100000,-0.100000)"
fill="#000000" stroke="none">
<path d="M2467 4790 c-91 -23 -184 -88 -237 -164 -15 -23 -132 -262 -259 -531
-127 -270 -242 -500 -254 -512 -20 -20 -77 -31 -557 -103 -471 -71 -542 -85
-597 -110 -189 -87 -285 -303 -223 -501 10 -35 32 -84 48 -109 16 -25 203
-221 415 -437 265 -270 387 -401 391 -420 4 -16 -31 -255 -85 -578 -103 -623
-104 -645 -50 -760 94 -202 319 -293 521 -211 30 12 257 133 503 269 299 165
458 247 478 247 19 0 188 -87 508 -263 374 -206 493 -267 541 -277 244 -52
489 149 490 402 0 25 -41 293 -90 595 -53 322 -88 559 -84 576 4 19 126 150
391 420 212 216 399 412 415 437 137 213 54 504 -175 610 -55 26 -125 39 -597
110 -456 69 -538 84 -557 101 -11 12 -123 237 -248 502 -125 265 -241 503
-257 529 -69 109 -186 177 -316 184 -42 2 -94 -1 -115 -6z"/>
</g>
</svg>
