<?xml version="1.0" standalone="no"?>
<!DOCTYPE svg PUBLIC "-//W3C//DTD SVG 20010904//EN"
 "http://www.w3.org/TR/2001/REC-SVG-20010904/DTD/svg10.dtd">
<svg version="1.0" xmlns="http://www.w3.org/2000/svg"
 width="512.000000pt" height="512.000000pt" viewBox="0 0 512.000000 512.000000"
 preserveAspectRatio="xMidYMid meet">

<g transform="translate(0.000000,512.000000) scale(0.100000,-0.100000)"
fill="#000000" stroke="none">
<path d="M2380 5110 c-177 -25 -331 -74 -488 -155 -405 -210 -684 -588 -768
-1040 -28 -146 -25 -393 5 -535 116 -549 512 -1174 1140 -1800 186 -185 232
-220 290 -220 64 0 102 29 300 228 627 628 1015 1242 1132 1792 32 149 32 419
1 567 -124 580 -564 1022 -1140 1143 -111 24 -368 34 -472 20z m306 -641 c305
-54 539 -256 636 -549 29 -87 31 -107 32 -230 1 -97 -4 -152 -16 -195 -59
-215 -171 -372 -345 -485 -136 -89 -259 -125 -433 -125 -176 0 -299 36 -436
127 -428 285 -487 878 -123 1236 180 178 446 264 685 221z"/>
<path d="M2441 4144 c-236 -63 -390 -297 -354 -534 43 -278 320 -464 588 -395
256 67 415 329 350 578 -67 259 -333 419 -584 351z"/>
<path d="M854 2656 c-345 -181 -596 -413 -733 -675 -367 -706 129 -1445 1204
-1794 847 -275 1900 -243 2699 82 98 41 98 41 125 22 48 -35 127 -54 193 -48
180 16 310 166 296 341 -21 253 -311 382 -513 228 -50 -38 -103 -120 -114
-175 -6 -27 -15 -34 -76 -59 -566 -234 -1274 -313 -1940 -217 -574 83 -1083
294 -1388 578 -118 109 -222 271 -263 407 -28 91 -26 258 4 354 83 264 303
488 669 683 92 48 119 67 121 85 3 23 -100 230 -122 244 -21 14 -42 7 -162
-56z"/>
<path d="M4104 2712 c-21 -14 -125 -223 -122 -245 2 -14 19 -30 48 -45 259
-137 372 -215 501 -342 276 -273 340 -582 183 -880 -19 -35 -34 -72 -34 -82 0
-9 43 -60 95 -113 72 -73 101 -96 118 -93 45 6 152 208 195 367 21 82 25 118
26 241 0 127 -3 157 -27 243 -55 200 -155 365 -327 538 -155 155 -377 310
-569 395 -57 26 -70 28 -87 16z"/>
<path d="M1279 1999 c-121 -59 -221 -130 -285 -203 -169 -192 -146 -426 59
-611 33 -30 80 -64 104 -76 31 -15 45 -28 49 -47 20 -95 87 -182 176 -229 45
-23 65 -28 133 -28 66 0 90 5 136 26 244 115 251 453 12 571 -59 29 -78 33
-144 33 -64 0 -86 -5 -137 -29 l-61 -29 -46 37 c-108 89 -95 151 50 245 39 26
112 64 163 85 51 22 97 47 103 58 13 24 3 41 -88 156 -55 68 -79 92 -97 92
-12 0 -70 -23 -127 -51z"/>
<path d="M3618 1958 c-93 -116 -102 -132 -89 -157 6 -10 41 -31 78 -46 151
-59 272 -140 301 -201 14 -31 14 -37 -1 -68 -66 -139 -453 -285 -907 -341
-159 -20 -531 -29 -680 -17 -146 12 -155 8 -164 -78 -4 -34 -16 -90 -26 -123
-34 -110 -26 -113 310 -123 494 -16 985 59 1338 205 196 81 363 218 424 347
30 63 33 77 33 164 0 85 -3 102 -31 160 -57 121 -193 241 -370 326 -40 19 -89
38 -107 41 -33 5 -37 2 -109 -89z"/>
</g>
</svg>
