<?xml version="1.0" standalone="no"?>
<!DOCTYPE svg PUBLIC "-//W3C//DTD SVG 20010904//EN"
 "http://www.w3.org/TR/2001/REC-SVG-20010904/DTD/svg10.dtd">
<svg version="1.0" xmlns="http://www.w3.org/2000/svg"
 width="512.000000pt" height="512.000000pt" viewBox="0 0 512.000000 512.000000"
 preserveAspectRatio="xMidYMid meet">

<g transform="translate(0.000000,512.000000) scale(0.100000,-0.100000)"
fill="#000000" stroke="none">
<path d="M467 5098 c-34 -31 -272 -745 -256 -765 16 -19 742 -19 756 0 13 16
136 764 128 777 -4 6 -111 10 -305 10 -296 0 -299 0 -323 -22z"/>
<path d="M1273 5108 c-13 -17 -136 -765 -128 -778 10 -16 759 -14 773 3 12 14
76 751 68 773 -7 20 -698 21 -713 2z"/>
<path d="M2162 5107 c-12 -14 -76 -751 -68 -773 8 -21 924 -21 932 0 8 22 -56
759 -68 773 -15 19 -781 19 -796 0z"/>
<path d="M3134 5106 c-8 -22 56 -759 68 -773 14 -17 763 -19 773 -3 8 13 -115
761 -128 778 -15 19 -706 18 -713 -2z"/>
<path d="M4025 5110 c-8 -13 115 -761 128 -777 14 -19 740 -19 756 0 16 20
-222 734 -256 765 -24 22 -27 22 -323 22 -194 0 -301 -4 -305 -10z"/>
<path d="M167 4153 c-10 -10 -8 -112 3 -161 47 -202 250 -339 453 -303 137 24
241 103 300 228 26 57 30 78 31 152 l1 86 -391 3 c-215 1 -393 -1 -397 -5z"/>
<path d="M1127 4153 c-10 -10 -8 -112 3 -161 47 -204 236 -329 453 -300 200
27 347 205 335 409 l-3 54 -391 3 c-215 1 -393 -1 -397 -5z"/>
<path d="M2090 4145 c-10 -12 -10 -28 -1 -72 36 -182 177 -331 356 -378 253
-66 514 94 581 356 9 34 13 72 10 85 l-6 24 -464 0 c-402 0 -465 -2 -476 -15z"/>
<path d="M3207 4153 c-10 -10 -8 -112 3 -161 47 -204 236 -329 453 -300 200
27 347 205 335 409 l-3 54 -391 3 c-215 1 -393 -1 -397 -5z"/>
<path d="M4167 4153 c-10 -10 -8 -112 3 -161 47 -202 250 -339 453 -303 137
24 241 103 300 228 26 57 30 78 31 152 l1 86 -391 3 c-215 1 -393 -1 -397 -5z"/>
<path d="M1965 3743 c-116 -162 -334 -249 -542 -213 -126 21 -270 106 -338
198 -16 23 -37 41 -45 41 -8 0 -30 -19 -48 -44 -111 -147 -333 -229 -527 -196
-79 14 -184 59 -238 102 -73 59 -67 184 -65 -1483 l3 -1503 195 0 195 0 5 950
c5 903 6 952 24 988 24 49 95 110 144 125 55 17 1049 17 1104 0 49 -15 120
-76 144 -125 18 -36 19 -85 24 -988 l5 -950 1475 0 1475 0 3 1503 c2 1667 8
1542 -65 1483 -54 -43 -159 -88 -238 -102 -194 -33 -416 49 -527 196 -18 25
-40 44 -48 44 -8 0 -30 -19 -48 -44 -58 -76 -155 -141 -272 -181 -76 -26 -244
-26 -320 0 -128 43 -220 108 -285 199 -22 31 -44 56 -48 57 -5 0 -45 -38 -90
-83 -66 -67 -99 -92 -167 -126 -192 -94 -388 -94 -580 1 -68 33 -102 58 -167
125 -46 46 -86 83 -90 83 -5 -1 -26 -26 -48 -57z m2338 -1034 c67 -18 102 -61
183 -223 74 -147 76 -153 71 -209 -7 -74 -41 -128 -108 -169 l-49 -31 0 -375
c0 -265 -4 -387 -12 -416 -16 -55 -99 -138 -154 -154 -59 -17 -1529 -17 -1588
0 -55 16 -138 99 -154 154 -8 29 -12 151 -12 417 l0 377 -38 19 c-82 42 -130
131 -118 218 7 55 135 310 174 346 60 58 35 56 937 57 550 0 843 -4 868 -11z"/>
<path d="M2608 2543 c-21 -24 -128 -239 -128 -257 0 -8 7 -22 16 -30 14 -14
113 -16 944 -16 831 0 930 2 944 16 9 8 16 22 16 30 0 18 -107 233 -128 257
-14 16 -67 17 -832 17 -765 0 -818 -1 -832 -17z"/>
<path d="M2647 2073 c-4 -3 -7 -172 -7 -375 l0 -369 25 -24 24 -25 751 0 751
0 25 25 24 24 -2 373 -3 373 -791 3 c-435 1 -794 -1 -797 -5z"/>
<path d="M744 2535 l-24 -24 2 -933 3 -933 555 0 555 0 3 933 2 933 -24 24
-25 25 -511 0 -511 0 -25 -25z m271 -800 c24 -23 25 -31 25 -135 0 -104 -1
-112 -25 -135 -15 -16 -36 -25 -55 -25 -19 0 -40 9 -55 25 -24 23 -25 31 -25
135 0 104 1 112 25 135 15 16 36 25 55 25 19 0 40 -9 55 -25z"/>
<path d="M25 455 c-25 -24 -25 -26 -25 -215 0 -189 0 -191 25 -215 l24 -25
2511 0 2511 0 24 25 c25 24 25 26 25 215 0 189 0 191 -25 215 l-24 25 -2511 0
-2511 0 -24 -25z"/>
</g>
</svg>
