<?xml version="1.0" standalone="no"?>
<!DOCTYPE svg PUBLIC "-//W3C//DTD SVG 20010904//EN"
 "http://www.w3.org/TR/2001/REC-SVG-20010904/DTD/svg10.dtd">
<svg version="1.0" xmlns="http://www.w3.org/2000/svg"
 width="512.000000pt" height="512.000000pt" viewBox="0 0 512.000000 512.000000"
 preserveAspectRatio="xMidYMid meet">

<g transform="translate(0.000000,512.000000) scale(0.100000,-0.100000)"
fill="#000000" stroke="none">
<path d="M2425 5114 c-285 -44 -440 -100 -644 -234 -119 -78 -296 -254 -373
-370 -105 -158 -187 -355 -218 -521 l-12 -66 -59 -28 c-132 -61 -321 -203
-418 -314 -171 -197 -279 -412 -333 -664 -28 -133 -30 -375 -5 -517 125 -688
750 -1184 1442 -1147 213 12 390 61 598 165 4 2 7 -316 7 -707 l0 -711 150 0
150 0 0 711 c0 391 3 709 8 707 207 -104 384 -153 597 -165 692 -37 1317 459
1442 1147 25 142 23 384 -5 517 -54 252 -162 467 -333 664 -97 111 -286 253
-418 314 l-59 28 -12 66 c-18 97 -72 254 -119 351 -69 139 -148 248 -266 367
-207 207 -455 338 -733 389 -86 15 -329 27 -387 18z m287 -1779 l3 -295 257
135 c142 74 261 135 266 135 14 0 144 -252 135 -261 -5 -4 -155 -84 -335 -179
l-328 -172 0 -635 c0 -560 -2 -634 -15 -629 -8 3 -40 21 -70 41 -31 19 -60 35
-65 35 -5 0 -34 -16 -65 -35 -30 -20 -62 -38 -70 -41 -13 -5 -15 32 -15 297
l-1 304 -325 170 c-179 94 -330 173 -336 176 -7 4 14 54 57 135 37 71 69 131
71 132 1 2 122 -59 268 -136 l266 -140 0 629 0 629 150 0 150 0 2 -295z"/>
</g>
</svg>
